# xmcd
#
# Track frame offsets:
#	150
#	15605
#	32315
#	47680
#	64730
#	85117
#	105477
#	129047
#	147680
#	164222
#	181855
#
# Disc length: 2613 seconds
#
# Revision: 0
# Processed by: cddbd v1.4PL0 Copyright (c) Steve Scherf et al.
# Submitted via: dBpowerAMP V4.0
#
DISCID=890a330b
DTITLE=Dusty Drake - Self Titled
DYEAR=2003
DGENRE=Country
TTITLE0=Too Wet To Plow
TTITLE1=Not Bad For A Good Ole Boy
TTITLE2=Smaller Pieces
TTITLE3=One Last Time
TTITLE4=Going On Eighteen
TTITLE5=The Hard Way
TTITLE6=Just Can't Take A Train
TTITLE7=The Wish
TTITLE8=And Then
TTITLE9=Ain't Nobody's Business
TTITLE10=Radio
EXTD=
EXTT0=
EXTT1=
EXTT2=
EXTT3=
EXTT4=
EXTT5=
EXTT6=
EXTT7=
EXTT8=
EXTT9=
EXTT10=
PLAYORDER=
